<?xml version="1.0" standalone="no"?>
<!DOCTYPE svg PUBLIC "-//W3C//DTD SVG 20010904//EN"
 "http://www.w3.org/TR/2001/REC-SVG-20010904/DTD/svg10.dtd">
<svg version="1.0" xmlns="http://www.w3.org/2000/svg"
 width="640.000000pt" height="640.000000pt" viewBox="0 0 640.000000 640.000000"
 preserveAspectRatio="xMidYMid meet">
<metadata>
Created by potrace 1.14, written by Peter Selinger 2001-2017
</metadata>
<g transform="translate(0.000000,640.000000) scale(0.100000,-0.100000)"
fill="#000000" stroke="none">
<path d="M0 3200 l0 -3200 3200 0 3200 0 0 3200 0 3200 -3200 0 -3200 0 0
-3200z m3500 2709 c694 -74 1354 -433 1804 -983 577 -704 764 -1657 495 -2529
-239 -777 -830 -1417 -1589 -1722 -299 -120 -591 -180 -925 -192 -753 -25
-1469 257 -2004 789 -389 387 -646 863 -751 1387 -41 209 -53 329 -53 551 1
539 149 1037 440 1479 481 733 1267 1185 2143 1235 91 5 327 -3 440 -15z"/>
<path d="M2925 5579 c-526 -64 -1007 -291 -1384 -654 -124 -119 -311 -343
-311 -372 0 -5 28 -15 63 -22 92 -19 337 -102 458 -155 526 -232 976 -639
1268 -1147 55 -97 148 -292 166 -348 9 -31 16 -22 61 84 162 384 446 760 774
1027 217 175 524 352 765 441 115 42 337 107 366 107 26 0 24 10 -13 61 -183
255 -430 482 -701 646 -295 178 -642 296 -979 332 -113 13 -431 12 -533 0z"/>
<path d="M1010 4168 c-88 -199 -159 -453 -185 -673 -23 -190 -16 -517 14 -690
24 -133 70 -308 110 -418 l27 -72 359 -6 c506 -9 1648 -10 1661 -1 15 9 -49
268 -101 407 -254 680 -821 1223 -1510 1445 -99 32 -295 80 -326 80 -11 0 -28
-26 -49 -72z"/>
<path d="M5205 4215 c-437 -102 -834 -323 -1150 -640 -60 -60 -138 -145 -172
-188 -161 -201 -313 -472 -393 -702 -37 -109 -100 -341 -100 -372 0 -10 199
-13 1010 -13 l1010 1 14 27 c21 41 74 214 101 327 116 488 71 1018 -127 1485
-49 116 -37 112 -193 75z"/>
<path d="M1171 1933 c126 -208 329 -435 540 -604 569 -457 1340 -625 2058
-448 178 44 306 90 476 174 379 184 705 468 943 822 24 35 45 69 48 78 6 13
-213 15 -2041 15 l-2047 0 23 -37z"/>
</g>
</svg>
